# xmcd
#
# Track frame offsets:
#  150
#  16575
#  30713
#  44027
#  59880
#  73054
#  87529
#  106112
#  119438
#  133941
#  149341
#  164168
#  181255
#  201000
#
# Disc length: 2889 seconds
#
# Revision: 0
# Processed by: cddbd v1.5.2PL0 Copyright (c) Steve Scherf et al.
# Submitted via: AltoMP3_Maker 3.0
#
DISCID=d70b470e
DTITLE=Les Lawson - Have Guitar Gotta Travel
DYEAR=1900
DGENRE=
TTITLE0=Have Guitar Gotta Travel
TTITLE1=Big Trucks, Diesel Smoke and Tar
TTITLE2=Back to The Bush or Bust
TTITLE3=Born To Be A Country Singer
TTITLE4=Boolem
TTITLE5=Dry On The Land
TTITLE6=Taking a Vacation
TTITLE7=Great To Be An Aussie
TTITLE8=Jesus is Coming
TTITLE9=Nowhere Like Australia
TTITLE10=Made Round To Go Around
TTITLE11=The Folks At Home
TTITLE12=The Stockmans Lament
TTITLE13=Bush Ballads Never Die
EXTD=
EXTT0=
EXTT1=
EXTT2=
EXTT3=
EXTT4=
EXTT5=
EXTT6=
EXTT7=
EXTT8=
EXTT9=
EXTT10=
EXTT11=
EXTT12=
EXTT13=
PLAYORDER=
